<?xml version="1.0" standalone="no"?>
<!DOCTYPE svg PUBLIC "-//W3C//DTD SVG 20010904//EN"
 "http://www.w3.org/TR/2001/REC-SVG-20010904/DTD/svg10.dtd">
<svg version="1.0" xmlns="http://www.w3.org/2000/svg"
 width="646.000000pt" height="152.000000pt" viewBox="0 0 646.000000 152.000000"
 preserveAspectRatio="xMidYMid meet">

<g transform="translate(0.000000,152.000000) scale(0.100000,-0.100000)"
fill="#000000" stroke="none">
<path d="M0 760 l0 -760 3230 0 3230 0 0 760 0 760 -3230 0 -3230 0 0 -760z
m3963 624 c147 -28 258 -88 329 -178 22 -28 44 -52 49 -54 5 -2 22 6 39 18 60
43 138 64 240 64 100 1 159 -14 253 -61 43 -21 47 -27 47 -58 0 -28 -4 -35
-19 -35 -12 0 -25 11 -33 27 -29 61 -142 101 -248 89 -74 -9 -170 -55 -223
-108 -24 -25 -59 -75 -77 -112 -58 -118 -52 -276 15 -391 101 -172 314 -237
492 -149 l53 25 0 133 c0 136 -5 156 -42 156 -32 0 -20 27 14 32 69 11 68 14
68 -172 l0 -169 -69 -34 c-315 -158 -679 53 -681 394 0 74 32 174 75 238 35
51 35 51 19 84 -29 56 -134 151 -204 185 -97 47 -170 63 -296 63 -132 1 -249
-24 -366 -77 -102 -46 -151 -43 -61 4 201 104 393 130 626 86z m-3212 -164
c114 -35 186 -119 196 -227 11 -119 -39 -205 -150 -262 l-67 -35 -170 -4
c-116 -3 -170 -8 -170 -16 -1 -6 -1 -103 -1 -216 1 -229 9 -277 60 -341 34
-42 26 -61 -14 -35 -53 35 -98 82 -123 130 l-27 51 -5 444 -5 443 -32 27 c-18
15 -33 35 -33 44 0 15 22 17 239 17 210 0 247 -2 302 -20z m840 -7 c129 -59
192 -181 160 -310 -23 -92 -97 -164 -198 -194 -24 -7 -43 -16 -43 -20 0 -11
184 -256 223 -297 83 -87 177 -98 359 -41 51 16 72 19 80 11 8 -8 -2 -17 -38
-32 -112 -49 -309 -65 -411 -35 -62 18 -126 74 -189 163 -26 37 -75 104 -108
150 l-61 83 -84 -3 -85 -3 3 -115 c1 -63 7 -122 12 -132 5 -10 23 -25 40 -33
19 -10 29 -22 27 -33 -3 -15 -20 -17 -131 -20 l-127 -3 0 24 c0 16 9 28 25 35
14 7 30 23 35 38 6 15 10 166 10 361 l0 336 -35 33 c-19 18 -35 40 -35 49 0
15 24 16 263 13 241 -3 266 -5 308 -25z m890 8 c128 -44 225 -120 276 -218
157 -299 -62 -643 -410 -643 -201 0 -370 97 -450 260 -30 61 -32 71 -32 175 0
103 2 114 32 177 55 116 154 204 279 247 80 28 229 29 305 2z m881 8 c142 -30
271 -129 331 -256 30 -63 32 -75 32 -173 0 -97 -2 -110 -32 -172 -73 -154
-214 -250 -408 -279 -96 -14 -365 -2 -365 17 0 7 13 21 29 30 16 10 34 28 40
41 7 16 11 141 11 364 l0 341 -28 27 c-15 15 -34 30 -41 32 -9 3 -12 12 -8 22
6 15 27 17 196 17 105 0 214 -5 243 -11z m693 1 c4 -6 -7 -27 -25 -46 l-31
-36 3 -359 3 -359 29 -24 c20 -15 27 -28 23 -39 -5 -14 -22 -17 -107 -17 -97
0 -100 1 -100 23 0 12 9 30 20 40 11 9 20 29 20 44 1 16 1 181 0 368 0 327 -1
341 -20 357 -11 9 -20 26 -20 37 0 20 5 21 99 21 58 0 103 -4 106 -10z m1185
-8 c0 -10 -11 -28 -25 -40 l-25 -22 0 -360 0 -361 26 -25 c46 -47 31 -59 -79
-62 -82 -2 -98 0 -104 14 -4 10 4 25 21 40 l26 25 0 369 0 368 -27 20 c-17 13
-24 25 -20 36 5 13 23 16 107 16 90 0 100 -2 100 -18z m742 -2 c76 -23 170
-82 215 -133 115 -132 144 -313 74 -463 -37 -78 -133 -179 -204 -213 -248
-119 -562 -22 -670 206 -30 64 -32 75 -32 178 0 103 2 114 32 177 55 116 149
201 272 244 87 31 220 33 313 4z m-3002 -193 c0 -13 -141 -147 -154 -147 -21
0 3 34 66 92 75 70 88 77 88 55z"/>
<path d="M433 1190 c-12 -5 -26 -18 -32 -28 -8 -15 -15 -293 -11 -419 0 -17
237 -18 295 -2 121 33 185 173 143 313 -18 58 -82 120 -140 134 -54 14 -223
15 -255 2z"/>
<path d="M1243 1190 c-12 -5 -26 -17 -32 -28 -8 -15 -18 -352 -12 -421 1 -12
26 -13 149 -7 126 5 154 9 192 29 66 34 103 99 108 188 4 59 0 77 -23 124 -30
62 -71 98 -130 114 -47 13 -221 14 -252 1z"/>
<path d="M2209 1177 c-267 -113 -328 -480 -112 -677 89 -82 122 -95 233 -95
82 0 103 4 152 27 74 34 139 102 180 186 31 64 33 72 33 182 0 109 -2 118 -32
180 -66 134 -176 209 -318 217 -68 3 -89 0 -136 -20z m440 -474 c-48 -50 -203
-182 -278 -236 -60 -44 -101 -59 -101 -37 0 6 4 10 9 10 17 0 207 149 300 236
56 51 97 82 99 75 2 -7 -11 -29 -29 -48z"/>
<path d="M3132 1184 l-22 -15 0 -373 c0 -448 -12 -412 137 -403 64 3 118 13
154 26 155 59 254 264 215 448 -35 167 -134 279 -281 318 -78 20 -174 20 -203
-1z m38 -14 c0 -5 -9 -14 -20 -20 -22 -12 -27 -1 -8 18 14 14 28 16 28 2z"/>
<path d="M5708 1177 c-134 -57 -221 -177 -243 -333 -20 -152 74 -331 217 -410
49 -27 61 -29 153 -29 92 0 104 3 153 29 74 41 136 107 174 184 28 56 33 78
36 157 6 137 -30 234 -120 322 -67 65 -136 95 -232 100 -69 3 -89 0 -138 -20z"/>
</g>
</svg>
