<?xml version="1.0" encoding="UTF-8"?>
<svg xmlns="http://www.w3.org/2000/svg" version="1.1" viewBox="0 0 792 283.39">
  <defs>
    <style>
      .cls-1 {
        fill: #edd8ad;
      }
    </style>
  </defs>
  <!-- Generator: Adobe Illustrator 28.7.1, SVG Export Plug-In . SVG Version: 1.2.0 Build 142)  -->
  <g>
    <g id="Capa_1">
      <g>
        <g>
          <path class="cls-1" d="M285.92,153.58c.12.01.25.05.37.06,1.82.16,3.23.28,4.38.37,13.93-9.06,27.27-21.19,40.73-34.01.21-1.26.36-2.53.46-3.81-15.12,14.44-30.08,28.05-45.94,37.39Z"/>
          <path class="cls-1" d="M347.5,101.19c.22.93.45,1.86.62,2.81,5.55-5.26,11.17-10.47,16.9-15.47v-3.4c-5.95,5.18-11.77,10.59-17.52,16.06Z"/>
          <path class="cls-1" d="M382.9,71.87c-.73.73-1.06,1.52-1.06,2.56v.48c1.9-1.41,3.81-2.77,5.74-4.1h-2.12c-1.03,0-1.82.33-2.56,1.06Z"/>
        </g>
        <g>
          <path class="cls-1" d="M304.63,64.51c-3.88-.7-7.7-1.06-11.35-1.06-11.91,0-23.09,3.8-33.24,11.32-6.2,4.98-11.06,11.19-14.44,18.47-2.96,6.35-4.46,13.07-4.46,20.01.33,10.53,3.31,19.54,8.88,26.8,5.07,6.62,11.52,11.79,19.17,15.35,8.05,3.79,16.63,5.72,25.48,5.72,7.88,0,15.56-1.66,22.84-4.95,8.17-3.9,14.95-9.63,20.16-17.05,5.59-7.95,8.48-16.59,8.58-25.69,0-11.84-3.91-22.47-11.63-31.61-8.02-9-18.1-14.83-29.99-17.32ZM329.12,135.05c-3.34,6.32-8.01,11.54-13.88,15.52-6.63,4.24-13.53,6.39-20.5,6.39-1.08,0-4-.21-8.68-.62-4.53-.4-10.14-3.21-16.69-8.36-6.55-5.15-11.37-11.96-14.3-20.22-1.68-5.12-2.53-10.29-2.53-15.36,0-5.48.99-11.04,2.93-16.5,2.58-6.79,6.57-12.73,11.87-17.67,5.28-4.92,11.5-8.21,18.47-9.78,2.35-.45,4.77-.68,7.19-.68,10.79.09,20.36,4.03,28.41,11.68,8.83,9.28,13.31,20.49,13.31,33.3,0,7.78-1.88,15.29-5.6,22.31Z"/>
          <path class="cls-1" d="M427.83,74.19c-6.61-4.74-14.03-7.9-22.07-9.4-3.75-.62-17.06-.92-40.68-.92h-5.14c-.5,0-.9.4-.9.9v2.71c0,.42.29.78.69.88,2.34.56,4.28,1.75,5.77,3.55,1.5,1.82,2.23,3.9,2.23,6.34v69.66c0,2.45-.73,4.54-2.23,6.38-1.49,1.83-3.43,3.03-5.77,3.58-.41.1-.69.46-.69.88v2.64q0,.93,7.89.95c4.66.01,11.64.02,20.95.02l3.62.07c13.57,0,26.12-4.13,37.33-12.29,5.82-4.55,10.51-10.16,13.94-16.66,3.43-6.52,5.22-13.54,5.32-20.9-.05-7.62-1.91-14.89-5.53-21.59-3.62-6.69-8.57-12.35-14.73-16.81ZM421.19,149.43c-6.08,4.82-13.82,7.59-23,8.22,0,0,0,0,0,0-4.12.32-8.4.48-12.72.48-1.76,0-3.22-.61-4.47-1.86-1.25-1.25-1.86-2.71-1.86-4.47v-77.38c0-1.76.61-3.22,1.86-4.47,1.25-1.25,2.71-1.86,4.47-1.86h8.48c4.38,0,8.78.69,13.05,2.04,7.68,2.67,14.19,7.23,19.32,13.52,6.8,9.07,10.25,19.25,10.25,30.26,0,14.58-5.18,26.54-15.37,35.51Z"/>
          <path class="cls-1" d="M482.85,63.8h-21.07c-.5,0-.9.4-.9.9v2.85c0,.37.22.7.56.83,3.27,1.34,4.86,3.5,4.86,6.6v75.29c0,3.15-1.59,5.33-4.86,6.67-.34.14-.56.47-.56.83v2.78c0,.5.4.9.9.9h21.07c.5,0,.9-.4.9-.9v-2.78c0-.37-.23-.7-.57-.84-3.64-1.44-5.41-3.8-5.41-7.23v-74.18c0-3.42,1.77-5.79,5.41-7.23.35-.14.57-.47.57-.84v-2.78c0-.5-.4-.9-.9-.9Z"/>
          <path class="cls-1" d="M523.87,78.05c8.09-6.6,17.12-9.95,26.82-9.95,7.48,0,13.95,1.75,19.25,5.2,2.56,1.69,4.18,4.19,4.97,7.65.09.41.46.7.88.7h2.64c.5,0,.9-.4.9-.9v-5.98c0-.31-.16-.6-.42-.77-8.47-5.28-17.55-8.53-26.99-9.65-9.25-1.15-18.93.55-28.26,5.1-3.17,1.63-6.1,3.57-8.8,5.77-8.05-15.9-27.33-29.53-64.03-29.53-19.89,0-37.56,6.21-53.87,15.8,2.12.07,3.92.15,5.38.24,15-8.06,31.16-13.12,49.09-13.12,27.69,0,48.1,12.24,57.85,31.93-1.58,1.77-3.07,3.64-4.42,5.65-4.82,7.16-7.59,15.13-8.25,23.7-.05.72-.07,1.45-.07,2.22,0,8.22,2.11,16.26,6.26,23.9,4.16,7.64,10.2,13.89,17.95,18.59,0,0,.01,0,.02.01,8.07,4.65,17.04,7,26.68,7,11.2-.19,21.67-3.44,31.21-9.72l.35-.28c.21-.17.34-.43.34-.7v-35.66c0-.5-.4-.9-.9-.9h-9.42c-.37,0-.66.35-.66.78v2.12c0,.43.3.78.66.78h2.36c1.13,0,2.2.62,2.9,1.67,0,0,.77,1.05.89,2.84v26.74c-7,5.37-15.14,8.09-24.19,8.09s-16.92-2.5-24.08-7.41c-6.06-4.38-10.76-9.97-13.97-16.59-3.22-6.63-4.85-13.88-4.85-21.51.5-13.49,5.82-24.88,15.8-33.82Z"/>
          <path class="cls-1" d="M614.09,63.8h-21.07c-.5,0-.9.4-.9.9v2.85c0,.37.22.7.56.83,3.27,1.34,4.86,3.5,4.86,6.6v75.29c0,3.15-1.59,5.33-4.86,6.67-.34.14-.56.47-.56.83v2.78c0,.5.4.9.9.9h21.07c.5,0,.9-.4.9-.9v-2.78c0-.37-.23-.7-.57-.84-3.64-1.44-5.41-3.8-5.41-7.23v-74.18c0-3.42,1.77-5.79,5.41-7.23.35-.14.57-.47.57-.84v-2.78c0-.5-.4-.9-.9-.9Z"/>
          <path class="cls-1" d="M721.26,81.83c-8.02-9-18.1-14.83-29.99-17.32-3.88-.7-7.7-1.06-11.35-1.06-11.91,0-23.09,3.8-33.24,11.32-6.2,4.98-11.06,11.19-14.44,18.47-2.96,6.35-4.46,13.07-4.46,20.01.33,10.53,3.31,19.54,8.88,26.8,5.07,6.62,11.52,11.79,19.17,15.35,8.05,3.79,16.63,5.72,25.48,5.72,7.88,0,15.56-1.66,22.84-4.95,8.17-3.9,14.95-9.63,20.16-17.05,5.59-7.95,8.48-16.59,8.58-25.69,0-11.84-3.91-22.47-11.63-31.61ZM715.75,135.05c-3.34,6.32-8.01,11.54-13.88,15.52-6.63,4.24-13.53,6.39-20.5,6.39-1.08,0-4-.21-8.68-.62-4.53-.4-10.14-3.21-16.69-8.36-6.55-5.15-11.37-11.96-14.3-20.22-1.68-5.12-2.53-10.29-2.53-15.36,0-5.48.99-11.04,2.93-16.5,2.58-6.79,6.57-12.73,11.87-17.67,5.28-4.92,11.5-8.21,18.47-9.78,2.35-.45,4.77-.68,7.19-.68,10.79.09,20.36,4.03,28.41,11.68,8.83,9.28,13.31,20.49,13.31,33.3,0,7.78-1.88,15.29-5.6,22.31Z"/>
          <path class="cls-1" d="M277.59,161.45c-1.48-.42-2.94-.92-4.39-1.45-9.13,3.82-18.63,6.33-28.66,6.33-8.01-.06-13.22-4.05-19.51-10.92h0c-5.64-6.16-18.32-24.25-18.46-24.44-1.53-2.16-3.48-4.48-5.27-6.27l-.59-.8c6.19-1.05,11.88-3.21,16.92-6.44,5.52-3.53,9.35-8.87,11.41-15.91.57-2.38.86-4.79.86-7.16,0-10.04-4.1-18.14-12.23-24.11-5.48-3.59-11.73-5.7-18.61-6.26-1.68-.05-18.47-.02-49.87.07-.5,0-.9.41-.9.9v2.71c0,.41.27.77.67.87,2.07.55,3.81,1.67,5.16,3.32,1.36,1.66,2.02,3.54,2.02,5.75v70.49c0,2.21-.66,4.1-2.02,5.75-1.36,1.65-3.09,2.77-5.16,3.32-.4.1-.67.46-.67.87v2.64c0,.5.4.9.9.9h26.49c.5,0,.9-.4.9-.9v-2.64c0-.42-.29-.79-.7-.88-2.43-.55-4.45-1.8-6-3.69-1.57-1.91-2.33-4.08-2.33-6.62v-22.8h19.01l11.17,15.06c5.21,7.48,11.11,15.96,12.11,17.16,5.2,6.2,12.91,13.32,26.57,13.32h8.13s.07-.02.1-.02c11.59-.07,22.49-3.09,32.95-8.15ZM167.55,119.83v-42.2c0-2.6.88-4.75,2.69-6.56,1.81-1.81,3.99-2.72,6.65-2.76,10.93-.28,18.43-.18,22.29.27,3.71.44,7.44,2.29,11.05,5.45,5.59,5.5,8.42,12.25,8.42,20.07,0,6.89-2.22,13.03-6.57,18.22-3.37,3.6-7.18,5.82-11.32,6.61-3.53.63-14.69.94-33.22.89Z"/>
          <path class="cls-1" d="M133.43,75.06c-5.64-5.92-12.55-9.45-20.6-10.5-4.6-.37-10.59-.56-17.8-.56-7.23.05-18.98.07-35.24.07-.5,0-.9.4-.9.9v2.71c0,.41.28.77.67.87,2.12.55,3.86,1.66,5.19,3.31,1.34,1.66,1.99,3.54,1.99,5.76v76.79c-.16,3.85-.23,6.04-.2,6.69.34,8.08,2.11,18.43,12.94,26.75l6.45,4.96c.16.12.35.19.55.19.04,0,.08,0,.12,0,.24-.03.45-.16.6-.34l.91-1.18c.3-.39.23-.96-.16-1.26-5.81-4.54-8.54-10.53-9.41-20.67-.19-2.14-.32-5.38-.39-9.62v-20.78c.05-1.28.05-2.79,0-4.45v-10.63l24.54.07c5,0,10.2-.6,15.46-1.79,5.36-1.22,10.34-4.14,14.83-8.72,4.9-5.42,7.48-11.87,7.67-19.17,0-7.33-2.41-13.84-7.17-19.36-.01-.01-.02-.02-.03-.03ZM125.1,108.89c-2.08,3.72-5.03,6.62-8.7,8.59-2.85,1.34-5.92,2.13-9.13,2.35-2.02.14-11.82.14-29.14,0v-42.21c0-2.6.88-4.75,2.69-6.56,1.82-1.81,3.99-2.72,6.63-2.76,11.93-.09,19.43,0,22.29.27,2.75.26,6.02,1.68,9.69,4.2,3.59,2.71,6.2,6.24,7.76,10.5,1.21,3.36,1.83,6.86,1.83,10.4,0,5.42-1.32,10.54-3.92,15.2Z"/>
        </g>
        <g>
          <path class="cls-1" d="M235.52,222.85h15.92l-.67,2.45h-2.6v10.15c-1.28,1.03-2.83,1.8-4.64,2.33s-3.68.79-5.6.79c-2.25,0-4.29-.34-6.13-1.03s-3.42-1.67-4.74-2.93c-1.32-1.27-2.33-2.8-3.05-4.59-.72-1.8-1.08-3.8-1.08-6.01,0-2.41.4-4.52,1.2-6.35.8-1.83,1.9-3.36,3.3-4.59,1.39-1.23,3.02-2.16,4.88-2.77,1.86-.61,3.85-.91,5.97-.91,1.6,0,3.16.24,4.67.72s2.87,1.22,4.09,2.21l.43,4.57c-.71-1.41-1.78-2.55-3.22-3.42-1.44-.87-3.03-1.3-4.76-1.3-1.54,0-2.92.28-4.14.84-1.22.56-2.26,1.36-3.13,2.38-.87,1.03-1.52,2.27-1.97,3.73-.45,1.46-.67,3.09-.67,4.88s.2,3.37.6,4.81c.4,1.44,1.01,2.68,1.83,3.7.82,1.03,1.83,1.83,3.03,2.41,1.2.58,2.62.87,4.26.87.93,0,1.84-.1,2.72-.31.88-.21,1.68-.49,2.38-.84v-9.33h-9.48l.63-2.45Z"/>
          <path class="cls-1" d="M287.87,235.5c.19.45.4.89.62,1.32s.51.79.87,1.08h-7.36l-2.07-4.81h-10.1l-2.07,4.81h-4.09c.32-.35.59-.73.82-1.13.22-.4.43-.83.62-1.27l11.26-26.03h.34l11.16,26.03ZM278.63,230.06l-3.75-8.9-3.8,8.9h7.55Z"/>
          <path class="cls-1" d="M303.36,231.12c1.03,1.44,2.37,2.54,4.04,3.3,1.67.75,3.37,1.13,5.1,1.13.58,0,1.18-.06,1.8-.17.63-.11,1.19-.3,1.68-.58.5-.27.91-.63,1.23-1.08.32-.45.48-1.03.48-1.73,0-1.06-.35-1.93-1.06-2.62-.71-.69-1.6-1.31-2.67-1.85-1.07-.55-2.24-1.08-3.49-1.61-1.25-.53-2.41-1.16-3.49-1.9-1.07-.74-1.97-1.64-2.67-2.72-.71-1.07-1.06-2.43-1.06-4.06,0-1.41.27-2.61.82-3.58.55-.98,1.28-1.77,2.19-2.38.91-.61,1.96-1.06,3.13-1.35,1.17-.29,2.38-.43,3.63-.43,1.6,0,3.07.21,4.4.63,1.33.42,2.6,1.04,3.82,1.88l.43,4.67c-.71-1.25-1.78-2.28-3.22-3.08-1.44-.8-3.05-1.2-4.81-1.2-1.48,0-2.69.31-3.63.94-.95.63-1.42,1.55-1.42,2.77,0,1.06.36,1.91,1.08,2.55.72.64,1.62,1.2,2.69,1.66,1.07.47,2.24.93,3.49,1.4,1.25.47,2.41,1.04,3.49,1.73,1.07.69,1.97,1.57,2.69,2.65.72,1.07,1.08,2.48,1.08,4.21,0,1.48-.28,2.74-.84,3.8-.56,1.06-1.31,1.92-2.24,2.57-.93.66-2,1.14-3.22,1.44-1.22.3-2.49.46-3.8.46-1.83,0-3.55-.25-5.17-.75-1.62-.5-2.96-1.13-4.02-1.9l-.48-4.76Z"/>
          <path class="cls-1" d="M338.57,210.05h21.55l1.01,3.66c-.55-.55-1.19-.87-1.92-.99-.74-.11-1.49-.17-2.26-.17h-4.43v22.76c0,.45.02.88.05,1.3.03.42.1.85.19,1.3h-6.83c.1-.45.16-.88.19-1.3.03-.42.05-.85.05-1.3v-22.76h-4.38c-.74,0-1.49.06-2.26.17-.77.11-1.43.44-1.97.99l1.01-3.66Z"/>
          <path class="cls-1" d="M377.39,237.91c.1-.45.16-.88.19-1.3.03-.42.05-.85.05-1.3v-22.51c0-.45-.02-.91-.05-1.37-.03-.46-.1-.92-.19-1.37h8.61c1.32,0,2.58.18,3.8.53,1.22.35,2.29.88,3.22,1.59.93.71,1.67,1.6,2.21,2.69.55,1.09.82,2.37.82,3.85,0,2.21-.6,3.99-1.8,5.34s-2.77,2.23-4.69,2.65c.55.9,1.15,1.9,1.83,3.01.67,1.11,1.39,2.18,2.14,3.22.75,1.04,1.51,2,2.26,2.89.75.88,1.48,1.58,2.19,2.09h-6.69l-6.54-10.97h-1.06v8.37c0,.45.02.88.05,1.3.03.42.1.85.19,1.3h-6.54ZM383.7,212.5v12.03h2.17c.96,0,1.8-.17,2.5-.51.7-.34,1.28-.79,1.73-1.35.45-.56.78-1.19,1.01-1.9.22-.71.35-1.44.39-2.21.06-1.73-.43-3.17-1.47-4.33-1.04-1.15-2.54-1.73-4.5-1.73h-1.83Z"/>
          <path class="cls-1" d="M426.56,238.48c-2.08,0-4.01-.35-5.77-1.06s-3.28-1.7-4.55-2.98c-1.27-1.28-2.26-2.81-2.98-4.59-.72-1.78-1.08-3.73-1.08-5.84,0-2.28.36-4.31,1.08-6.11.72-1.8,1.71-3.32,2.98-4.57,1.27-1.25,2.78-2.2,4.55-2.86,1.76-.66,3.69-.99,5.77-.99s4.01.33,5.77.99c1.76.66,3.28,1.61,4.55,2.86,1.26,1.25,2.26,2.77,2.98,4.57.72,1.8,1.09,3.83,1.09,6.11,0,2.12-.36,4.06-1.09,5.84-.72,1.78-1.72,3.31-2.98,4.59-1.27,1.28-2.79,2.28-4.55,2.98s-3.69,1.06-5.77,1.06ZM426.56,235.69c1.19,0,2.26-.3,3.23-.89.96-.59,1.78-1.4,2.45-2.43.67-1.03,1.19-2.26,1.56-3.7.37-1.44.55-3,.55-4.67,0-3.69-.7-6.56-2.09-8.61-1.39-2.05-3.3-3.08-5.7-3.08s-4.3,1.03-5.7,3.08c-1.39,2.05-2.1,4.92-2.1,8.61,0,1.67.19,3.22.56,4.67.37,1.44.89,2.68,1.56,3.7.67,1.03,1.49,1.84,2.45,2.43.96.59,2.04.89,3.22.89Z"/>
          <path class="cls-1" d="M487.61,210.05c1.38,0,2.71.09,3.99.26,1.28.18,2.41.51,3.39,1.01.98.5,1.76,1.18,2.36,2.04.59.87.89,1.99.89,3.37,0,.87-.15,1.65-.46,2.36-.31.71-.68,1.32-1.13,1.85-.45.53-.95.96-1.49,1.3-.55.34-1.06.55-1.54.65.93.13,1.82.37,2.67.72.85.35,1.59.84,2.24,1.47.64.63,1.15,1.38,1.54,2.26.39.88.58,1.9.58,3.06,0,1.35-.23,2.5-.67,3.46-.45.96-1.09,1.74-1.92,2.33-.84.59-1.85,1.03-3.06,1.3-1.2.27-2.56.41-4.06.41h-10.73c.13-.45.2-.88.22-1.3.01-.42.02-.85.02-1.3v-22.47c0-.45,0-.91-.02-1.4-.02-.48-.09-.95-.22-1.4h7.41ZM488.62,222.08c1.38,0,2.5-.46,3.37-1.37.87-.91,1.3-2.08,1.3-3.49,0-1.54-.45-2.72-1.35-3.54-.9-.82-2.12-1.23-3.66-1.23h-1.39v9.62h1.73ZM489.24,235.5c1.86,0,3.29-.42,4.31-1.25,1.01-.83,1.52-2.12,1.52-3.85,0-2.08-.55-3.59-1.64-4.52-1.09-.93-2.49-1.4-4.19-1.4h-2.36v11.02h2.36Z"/>
          <path class="cls-1" d="M538.51,235.5c.19.45.4.89.63,1.32.22.43.51.79.87,1.08h-7.36l-2.07-4.81h-10.1l-2.07,4.81h-4.09c.32-.35.59-.73.82-1.13.22-.4.43-.83.62-1.27l11.26-26.03h.34l11.16,26.03ZM529.27,230.06l-3.75-8.9-3.8,8.9h7.55Z"/>
          <path class="cls-1" d="M556.45,237.91c.1-.45.16-.88.19-1.3.03-.42.05-.85.05-1.3v-22.51c0-.45-.02-.91-.05-1.37-.03-.46-.1-.92-.19-1.37h8.61c1.31,0,2.58.18,3.8.53,1.22.35,2.29.88,3.22,1.59.93.71,1.67,1.6,2.21,2.69.54,1.09.82,2.37.82,3.85,0,2.21-.6,3.99-1.8,5.34-1.2,1.35-2.77,2.23-4.69,2.65.54.9,1.15,1.9,1.83,3.01.67,1.11,1.39,2.18,2.14,3.22.75,1.04,1.51,2,2.26,2.89.75.88,1.48,1.58,2.19,2.09h-6.69l-6.54-10.97h-1.06v8.37c0,.45.02.88.05,1.3.03.42.1.85.19,1.3h-6.54ZM562.75,212.5v12.03h2.16c.96,0,1.8-.17,2.5-.51.7-.34,1.28-.79,1.73-1.35.45-.56.78-1.19,1.01-1.9.22-.71.35-1.44.38-2.21.06-1.73-.43-3.17-1.47-4.33-1.04-1.15-2.54-1.73-4.5-1.73h-1.83Z"/>
        </g>
      </g>
    </g>
  </g>
</svg>